REM MD5 9fbcd3eb4d9faf962313e6b230a5a3dd
FILE "Play-Pre Vol. 5 (Japan) (Disc 1).bin" BINARY
  TRACK 01 MODE2/2352
    INDEX 01 00:00:00
  TRACK 02 AUDIO
    INDEX 00 35:52:60
    INDEX 01 35:54:60
  TRACK 03 AUDIO
    INDEX 00 36:50:15
    INDEX 01 36:52:15
  TRACK 04 AUDIO
    INDEX 00 37:00:16
    INDEX 01 37:02:16
REM LEADOUT 41:02:59
